<svg width="73" height="27" viewBox="0 0 73 27" fill="none" xmlns="http://www.w3.org/2000/svg">
<path d="M19.8822 7.88158L19.1463 7.14564C18.9383 6.93765 18.5543 6.96966 18.3143 7.2576L15.7541 9.80157C14.602 9.30562 13.3382 9.06562 12.0101 9.06562C8.05798 9.08156 4.6342 11.3855 2.98608 14.6977C2.89006 14.9057 2.89006 15.1617 2.98608 15.3376C3.75402 16.9057 4.90609 18.2017 6.34609 19.1776L4.2501 21.3056C4.0101 21.5456 3.97809 21.9296 4.13813 22.1376L4.87408 22.8735C5.08207 23.0815 5.46606 23.0495 5.70606 22.7616L19.754 8.71369C20.058 8.47383 20.09 8.08987 19.882 7.88185L19.8822 7.88158ZM12.8581 12.7135C12.5861 12.6494 12.2981 12.5695 12.0261 12.5695C10.6661 12.5695 9.57818 13.6575 9.57818 15.0174C9.57818 15.2894 9.64219 15.5774 9.72215 15.8494L8.65003 16.9054C8.33008 16.3455 8.15409 15.7214 8.15409 15.0175C8.15409 12.8895 9.86611 11.1775 11.9941 11.1775C12.6982 11.1775 13.3221 11.3534 13.8821 11.6734L12.8581 12.7135Z" fill="#666666" fill-opacity="0.8"/>
<path d="M21.0347 14.6979C20.4747 13.5779 19.7386 12.5699 18.8267 11.7539L15.8507 14.6979V15.0179C15.8507 17.1459 14.1387 18.8579 12.0107 18.8579H11.6907L9.80273 20.7459C10.5068 20.8898 11.2427 20.9859 11.9627 20.9859C15.9149 20.9859 19.3386 18.6819 20.9868 15.3537C21.1307 15.1297 21.1307 14.9058 21.0347 14.6977L21.0347 14.6979Z" fill="#666666" fill-opacity="0.8"/>
<path d="M45.4856 7.454V20H43.8476V14.312H37.4576V20H35.8196V7.454H37.4576V12.962H43.8476V7.454H45.4856ZM49.1285 8.534C48.8165 8.534 48.5525 8.426 48.3365 8.21C48.1205 7.994 48.0125 7.73 48.0125 7.418C48.0125 7.106 48.1205 6.842 48.3365 6.626C48.5525 6.41 48.8165 6.302 49.1285 6.302C49.4285 6.302 49.6805 6.41 49.8845 6.626C50.1005 6.842 50.2085 7.106 50.2085 7.418C50.2085 7.73 50.1005 7.994 49.8845 8.21C49.6805 8.426 49.4285 8.534 49.1285 8.534ZM49.9205 10.136V20H48.2825V10.136H49.9205ZM56.5822 10.172C57.4102 10.172 58.1182 10.352 58.7062 10.712C59.3062 11.072 59.7622 11.582 60.0742 12.242C60.3982 12.89 60.5602 13.652 60.5602 14.528V15.482H53.9542C53.9782 16.574 54.2542 17.408 54.7822 17.984C55.3222 18.548 56.0722 18.83 57.0322 18.83C57.6442 18.83 58.1842 18.776 58.6522 18.668C59.1322 18.548 59.6242 18.38 60.1282 18.164V19.55C59.6362 19.766 59.1502 19.922 58.6702 20.018C58.1902 20.126 57.6202 20.18 56.9602 20.18C56.0482 20.18 55.2382 19.994 54.5302 19.622C53.8342 19.25 53.2882 18.698 52.8922 17.966C52.5082 17.222 52.3162 16.316 52.3162 15.248C52.3162 14.192 52.4902 13.286 52.8382 12.53C53.1982 11.774 53.6962 11.192 54.3322 10.784C54.9802 10.376 55.7302 10.172 56.5822 10.172ZM56.5642 11.468C55.8082 11.468 55.2082 11.714 54.7642 12.206C54.3322 12.686 54.0742 13.358 53.9902 14.222H58.9042C58.9042 13.67 58.8202 13.19 58.6522 12.782C58.4842 12.374 58.2262 12.056 57.8782 11.828C57.5422 11.588 57.1042 11.468 56.5642 11.468ZM57.2842 6.212C57.4282 6.476 57.6322 6.776 57.8962 7.112C58.1722 7.436 58.4542 7.76 58.7422 8.084C59.0422 8.396 59.3062 8.666 59.5342 8.894V9.092H58.4182C58.1062 8.9 57.7822 8.666 57.4462 8.39C57.1102 8.102 56.7802 7.796 56.4562 7.472C56.1322 7.796 55.8082 8.096 55.4842 8.372C55.1602 8.648 54.8422 8.888 54.5302 9.092H53.4502V8.894C53.6782 8.654 53.9302 8.378 54.2062 8.066C54.4942 7.754 54.7702 7.436 55.0342 7.112C55.2982 6.776 55.5082 6.476 55.6642 6.212H57.2842ZM56.7262 23.168C56.4742 23.168 56.2522 23.084 56.0602 22.916C55.8802 22.748 55.7902 22.496 55.7902 22.16C55.7902 21.812 55.8802 21.554 56.0602 21.386C56.2522 21.23 56.4742 21.152 56.7262 21.152C56.9782 21.152 57.1942 21.23 57.3742 21.386C57.5662 21.554 57.6622 21.812 57.6622 22.16C57.6622 22.496 57.5662 22.748 57.3742 22.916C57.1942 23.084 56.9782 23.168 56.7262 23.168ZM67.6783 9.956C68.8783 9.956 69.8503 10.322 70.5943 11.054C71.3383 11.774 71.7103 12.818 71.7103 14.186V20H70.0903V14.42C70.0903 13.436 69.8443 12.686 69.3523 12.17C68.8603 11.642 68.1883 11.378 67.3363 11.378C66.4723 11.378 65.7823 11.648 65.2663 12.188C64.7623 12.728 64.5103 13.514 64.5103 14.546V20H62.8723V10.136H64.5103V11.54C64.8343 11.036 65.2723 10.646 65.8243 10.37C66.3883 10.094 67.0063 9.956 67.6783 9.956Z" fill="#666666" fill-opacity="0.8"/>
</svg>
